<svg xmlns="http://www.w3.org/2000/svg" viewBox="0 0 120 120">
  <defs>
    <linearGradient id="bg" x1="0%" y1="0%" x2="100%" y2="100%">
      <stop offset="0%" stop-color="#431407"/>
      <stop offset="100%" stop-color="#7c2d12"/>
    </linearGradient>
    <linearGradient id="shirt" x1="0%" y1="0%" x2="100%" y2="0%">
      <stop offset="0%" stop-color="#3b82f6"/>
      <stop offset="100%" stop-color="#2563eb"/>
    </linearGradient>
  </defs>
  <circle cx="60" cy="60" r="58" fill="url(#bg)"/>
  <path d="M20 110c5-25 15-35 40-35s35 10 40 35H20z" fill="url(#shirt)"/>
  <path d="M45 75l15 15 15-15" fill="none" stroke="#ffffff" stroke-width="3" stroke-linecap="round"/>
  <circle cx="60" cy="48" r="22" fill="#ffedd5"/>
  <path d="M38 48c0-18 44-18 44 0c0 5 4 10 4 12c-4-4-5-8-5-8l-4-2c-3-8-12-10-17-10s-14 2-17 10l-4 2c0 0-1 4-5 8c0-2 4-7 4-12z" fill="#78350f"/>
  <path d="M48 70c4 8 8 16 12 16s8-8 12-16" fill="none" stroke="#ffffff" stroke-width="1.5" stroke-dasharray="2,2"/>
  <rect x="54" y="82" width="12" height="8" rx="2" fill="#cbd5e1" stroke="#1e293b" stroke-width="1.5"/>
  <rect x="62" y="84" width="6" height="3" fill="#94a3b8"/>
</svg>
